<?xml version="1.0" standalone="no"?>
<!DOCTYPE svg PUBLIC "-//W3C//DTD SVG 20010904//EN"
 "http://www.w3.org/TR/2001/REC-SVG-20010904/DTD/svg10.dtd">
<svg version="1.0" xmlns="http://www.w3.org/2000/svg"
 width="144.000000pt" height="144.000000pt" viewBox="0 0 144.000000 144.000000"
 preserveAspectRatio="xMidYMid meet">
<metadata>
Created by potrace 1.14, written by Peter Selinger 2001-2017
</metadata>
<g transform="translate(0.000000,144.000000) scale(0.100000,-0.100000)"
fill="#000000" stroke="none">
<path d="M387 1330 c-26 -5 -63 -62 -252 -395 -12 -22 -45 -80 -74 -128 -28
-49 -51 -90 -51 -93 0 -3 71 -128 99 -174 5 -8 64 -111 131 -228 118 -204 123
-212 154 -213 210 -4 680 1 686 7 7 8 165 275 235 399 12 22 44 78 72 125 l49
86 -27 45 c-15 25 -40 69 -55 97 -16 27 -85 146 -153 264 l-123 213 -332 0
c-183 0 -344 -2 -359 -5z"/>
</g>
</svg>
